<svg xmlns="http://www.w3.org/2000/svg" width="20" height="20" viewBox="0 0 20 20">
  <g id="Group_418" data-name="Group 418" transform="translate(11951 2978)">
    <g id="Ellipse_72" data-name="Ellipse 72" transform="translate(-11951 -2978)" fill="#75c936" stroke="#fff" stroke-width="2">
      <circle cx="10" cy="10" r="10" stroke="none"/>
      <circle cx="10" cy="10" r="9" fill="none"/>
    </g>
    <path id="Path_194" data-name="Path 194" d="M147.593,23.754a.834.834,0,0,0-1.183.125l-5.983,6.869-1.39-2.59a.84.84,0,0,0-1.483.789l1.7,3.14.253.475a.833.833,0,0,0,1.136.364,1.063,1.063,0,0,0,.189-.125L147.7,24.94A.83.83,0,0,0,147.593,23.754Z" transform="translate(-12083.451 -2996.564)" fill="#fff"/>
  </g>
</svg>
