<svg xmlns="http://www.w3.org/2000/svg" width="22.858" height="17.985" viewBox="0 0 22.858 17.985">
  <path id="Path_143" data-name="Path 143" d="M37.226,2.125a1.587,1.587,0,0,0-2.251.24L23.6,15.417,20.959,10.5A1.6,1.6,0,1,0,18.137,12l3.242,5.971.479.9a1.58,1.58,0,0,0,2.162.691,1.918,1.918,0,0,0,.36-.24L37.444,4.375a1.58,1.58,0,0,0-.219-2.25Z" transform="translate(-14.958 -1.764)" fill="#ff5130"/>
  <path id="Path_144" data-name="Path 144" d="M3.841,21.352A1.81,1.81,0,1,0,2.032,23.16,1.81,1.81,0,0,0,3.841,21.352Z" transform="translate(-0.22 -16.552)" fill="#ff5230"/>
</svg>
