<svg xmlns="http://www.w3.org/2000/svg" width="18" height="18" viewBox="0 0 18 18">
  <g id="Group_220" data-name="Group 220" transform="translate(4851 543)">
    <g id="article-24px" transform="translate(-4854 -546)">
      <g id="Group_185" data-name="Group 185">
        <path id="Path_140" data-name="Path 140" d="M19,5V19H5V5H19m0-2H5A2.006,2.006,0,0,0,3,5V19a2.006,2.006,0,0,0,2,2H19a2.006,2.006,0,0,0,2-2V5a2.006,2.006,0,0,0-2-2Z" fill="#ff5130"/>
      </g>
      <path id="Path_141" data-name="Path 141" d="M14,17H7V15h7Zm3-4H7V11H17Zm0-4H7V7H17Z" fill="#ff5130"/>
    </g>
  </g>
</svg>
