<svg xmlns="http://www.w3.org/2000/svg" width="180.5" height="97.908" viewBox="0 0 180.5 97.908">
  <g id="Group_252" data-name="Group 252" transform="translate(9553.5 -504.592)">
    <g id="Group_249" data-name="Group 249" transform="translate(78 -18.908)">
      <rect id="Rectangle_215" data-name="Rectangle 215" width="100.5" height="61.908" rx="8" transform="translate(-9552.5 524.5)" fill="none" stroke="#ff5130" stroke-linecap="round" stroke-linejoin="round" stroke-width="2"/>
      <path id="Polygon_3" data-name="Polygon 3" d="M24.522,0,49.044,35.376H0Z" transform="translate(-9517.124 530.932) rotate(90)" fill="none" stroke="#ff5130" stroke-linecap="round" stroke-linejoin="round" stroke-width="2"/>
      <path id="Polygon_4" data-name="Polygon 4" d="M24.522,0,49.044,35.376H0Z" transform="translate(-9487.376 579.976) rotate(-90)" fill="none" stroke="#ff5130" stroke-linecap="round" stroke-linejoin="round" stroke-width="2"/>
      <line id="Line_59" data-name="Line 59" x2="30.552" transform="translate(-9517.928 555.856)" fill="none" stroke="#ff5130" stroke-linecap="round" stroke-linejoin="round" stroke-width="2"/>
    </g>
    <g id="Group_248" data-name="Group 248" transform="translate(0 15.092)">
      <rect id="Rectangle_215-2" data-name="Rectangle 215" width="100.5" height="61.908" rx="8" transform="translate(-9552.5 524.5)" fill="#fff" stroke="#ff5130" stroke-linecap="round" stroke-linejoin="round" stroke-width="2"/>
      <path id="Polygon_3-2" data-name="Polygon 3" d="M24.522,0,49.044,35.376H0Z" transform="translate(-9517.124 530.932) rotate(90)" fill="none" stroke="#ff5130" stroke-linecap="round" stroke-linejoin="round" stroke-width="2"/>
      <path id="Polygon_4-2" data-name="Polygon 4" d="M24.522,0,49.044,35.376H0Z" transform="translate(-9487.376 579.976) rotate(-90)" fill="none" stroke="#ff5130" stroke-linecap="round" stroke-linejoin="round" stroke-width="2"/>
      <line id="Line_59-2" data-name="Line 59" x2="30.552" transform="translate(-9517.928 555.856)" fill="none" stroke="#ff5130" stroke-linecap="round" stroke-linejoin="round" stroke-width="2"/>
    </g>
    <g id="Group_250" data-name="Group 250">
      <path id="Path_173" data-name="Path 173" d="M-9515.43,529.043s2.8-14.355,27.31-14.355" fill="none" stroke="#ff5130" stroke-linecap="round" stroke-linejoin="round" stroke-width="2"/>
      <path id="Path_174" data-name="Path 174" d="M-9491.174,510.633l4.243,4.243-4.243,4.055" fill="none" stroke="#ff5130" stroke-linecap="round" stroke-linejoin="round" stroke-width="2"/>
    </g>
    <g id="Group_251" data-name="Group 251" transform="translate(-18923.359 1105.677) rotate(180)">
      <path id="Path_173-2" data-name="Path 173" d="M-9515.43,529.043s2.8-14.355,27.31-14.355" fill="none" stroke="#ff5130" stroke-linecap="round" stroke-linejoin="round" stroke-width="2"/>
      <path id="Path_174-2" data-name="Path 174" d="M-9491.174,510.633l4.243,4.243-4.243,4.055" fill="none" stroke="#ff5130" stroke-linecap="round" stroke-linejoin="round" stroke-width="2"/>
    </g>
  </g>
</svg>
