<svg xmlns="http://www.w3.org/2000/svg" width="20" height="20" viewBox="0 0 20 20">
  <g id="Group_213" data-name="Group 213" transform="translate(-116.5 -143)">
    <g id="mode_comment-24px" transform="translate(114.5 141)">
      <g id="Path_123" data-name="Path 123" fill="none" stroke-linecap="round" stroke-linejoin="round">
        <path d="M2.01,4A2,2,0,0,1,4,2H20a2.006,2.006,0,0,1,2,2V16a2.006,2.006,0,0,1-2,2H6L2,22Z" stroke="none"/>
        <path d="M 4.01054573059082 4 C 4.010227203369141 4.000646591186523 4.010000228881836 4.001110076904297 4.010000228881836 4.001110076904297 L 4.002683639526367 17.16889572143555 L 4.585790634155273 16.58579063415527 C 4.960859298706055 16.2107105255127 5.469570159912109 16 6 16 L 19.99642372131348 15.99999046325684 C 19.99765968322754 15.99895572662354 19.99896812438965 15.99764728546143 20 15.99641227722168 L 19.99999046325684 4.003576278686523 C 19.99895668029785 4.002340316772461 19.99764633178711 4.001031875610352 19.99641227722168 4 L 4.01054573059082 4 M 4 2 L 20 2 C 21.10000038146973 2 22 2.899999618530273 22 4 L 22 16 C 22 17.10000038146973 21.10000038146973 18 20 18 L 6 18 L 2 22 L 2.010000228881836 4 C 2.010000228881836 2.899999618530273 2.899999618530273 2 4 2 Z" stroke="none" fill="#62697e"/>
      </g>
    </g>
  </g>
</svg>
