<svg xmlns="http://www.w3.org/2000/svg" width="21.816" height="20.629" viewBox="0 0 21.816 20.629">
  <g id="Group_214" data-name="Group 214" transform="translate(-286.5 -3)">
    <g id="tick" transform="translate(286.5 3)">
      <path id="Path_48" data-name="Path 48" d="M152.758,23.851a1.259,1.259,0,0,0-1.785.189l-9.03,10.367-2.1-3.908a1.268,1.268,0,0,0-2.238,1.191l2.572,4.739.383.717a1.257,1.257,0,0,0,1.715.55,1.605,1.605,0,0,0,.286-.189l10.363-11.866A1.252,1.252,0,0,0,152.758,23.851Z" transform="translate(-131.408 -22.527)" fill="#ff5130"/>
      <path id="Path_49" data-name="Path 49" d="M19.738,7.48l-1.209,1.38a.307.307,0,0,0-.075.251,8.238,8.238,0,1,1-3.381-5.518.311.311,0,0,0,.413-.048l.972-1.108a.316.316,0,0,0-.048-.457,10.295,10.295,0,1,0,3.865,5.628A.314.314,0,0,0,19.738,7.48Z" transform="translate(0.003 0.012)" fill="#ff5130"/>
    </g>
  </g>
</svg>
