<svg xmlns="http://www.w3.org/2000/svg" width="12.093" height="12.004" viewBox="0 0 12.093 12.004">
  <g id="icons" transform="translate(-3.275 -3.214)">
    <g id="edit" transform="translate(3.275 3.214)">
      <path id="Path_147" data-name="Path 147" d="M2,18.6a.926.926,0,0,0,.924.924h1.2L2,17.4Z" transform="translate(-2 -7.521)"/>
      <path id="Path_148" data-name="Path 148" d="M19.764,4.739,18.623,3.6a1.235,1.235,0,0,0-1.789,0l-.128.128a.618.618,0,0,0,0,.895l2.036,2.036a.618.618,0,0,0,.895,0l.128-.128A1.235,1.235,0,0,0,19.764,4.739Z" transform="translate(-8.055 -3.214)"/>
      <path id="Path_149" data-name="Path 149" d="M11.483,6.706a.618.618,0,0,0-.895,0L4.774,12.521a.645.645,0,0,0-.064.958l2.036,2.036a.618.618,0,0,0,.895,0L13.455,9.7a.618.618,0,0,0,0-.895Z" transform="translate(-3.726 -4.406)"/>
    </g>
  </g>
</svg>
