<svg xmlns="http://www.w3.org/2000/svg" width="173" height="173" viewBox="0 0 173 173">
  <g id="Group_227" data-name="Group 227" transform="translate(-101 -141)">
    <rect id="Rectangle_171" data-name="Rectangle 171" width="173" height="173" transform="translate(101 141)" fill="#ebeff4" opacity="0"/>
    <g id="XMLID_169_" transform="translate(110 150.1)">
      <path id="XMLID_165_" d="M81.8,125.419V76.6h88.817v48.283" transform="translate(-49.026 -44.481)" fill="none" stroke="#ff5130" stroke-linecap="round" stroke-linejoin="round" stroke-miterlimit="10" stroke-width="2"/>
      <path id="XMLID_170_" d="M32.545,142,16,153.829v8.234" transform="translate(0 -93.209)" fill="none" stroke="#ff5130" stroke-linecap="round" stroke-linejoin="round" stroke-miterlimit="10" stroke-width="2"/>
      <path id="XMLID_152_" d="M215.024,32.119,193.712,16.9h0L172.4,32.119" transform="translate(-116.529)" fill="none" stroke="#ff5130" stroke-linecap="round" stroke-linejoin="round" stroke-miterlimit="10" stroke-width="2"/>
      <path id="XMLID_167_" d="M446.974,161.616v-8.234L430.2,141.4" transform="translate(-308.609 -92.762)" fill="none" stroke="#ff5130" stroke-linecap="round" stroke-linejoin="round" stroke-miterlimit="10" stroke-width="2"/>
      <path id="XMLID_166_" d="M16,443.7v5.659a7.453,7.453,0,0,0,7.444,7.444h107.5a7.453,7.453,0,0,0,7.444-7.444V443.7" transform="translate(0 -317.997)" fill="none" stroke="#ff5130" stroke-linecap="round" stroke-linejoin="round" stroke-miterlimit="10" stroke-width="2"/>
      <g id="XMLID_153_" transform="translate(16 68.701)">
        <path id="XMLID_164_" d="M376.49,278.5,335.6,249.315,376.49,220.1Z" transform="translate(-254.125 -220.1)" fill="none" stroke="#ff5130" stroke-linecap="round" stroke-linejoin="round" stroke-miterlimit="10" stroke-width="2"/>
        <path id="XMLID_163_" d="M16,278.5l40.89-29.189L16,220.1Z" transform="translate(-16 -220.1)" fill="none" stroke="#ff5130" stroke-linecap="round" stroke-linejoin="round" stroke-miterlimit="10" stroke-width="2"/>
      </g>
      <line id="XMLID_168_" x1="42.42" transform="translate(55.947 97.916)" fill="none" stroke="#ff5130" stroke-linecap="round" stroke-linejoin="round" stroke-miterlimit="10" stroke-width="2"/>
    </g>
  </g>
</svg>
