<svg id="Component_66_1" data-name="Component 66 – 1" xmlns="http://www.w3.org/2000/svg" width="117.607" height="117.609" viewBox="0 0 117.607 117.609">
  <g id="key" transform="translate(123.607 -4.999) rotate(90)">
    <g id="Group_246" data-name="Group 246" transform="translate(4.999 6)">
      <path id="Path_170" data-name="Path 170" d="M25.314,40A13.314,13.314,0,1,0,38.628,53.314,13.327,13.327,0,0,0,25.314,40Zm0,24.409A11.095,11.095,0,1,1,36.409,53.314,11.093,11.093,0,0,1,25.314,64.409Z" transform="translate(3.535 35.446)" fill="#ff5130"/>
      <path id="Path_171" data-name="Path 171" d="M110.142,6H95.98L52.5,49.479A38.048,38.048,0,0,0,42.68,48.19a37.717,37.717,0,1,0,36.886,29.7l9.757-9.759V57.037h11.1l4.438-4.438V39.285l4.438-4.438h13.314V6Zm10.247,2.219V8.3L69.579,59.114a3.33,3.33,0,0,1-4.709-4.709L111.061,8.219Zm0,24.409H108.376l-.65.65-4.438,4.438-.65.65V51.68L99.5,54.818H87.1v12.4L78,76.32l-.857.857.255,1.181A35.509,35.509,0,1,1,42.682,50.407a35.908,35.908,0,0,1,9.249,1.214l1.236.331.905-.905L96.9,8.219h11.024L63.3,52.836a5.547,5.547,0,0,0,7.846,7.844l49.242-49.24Z" transform="translate(-4.999 -6)" fill="#ff5130"/>
      <g id="Group_245" data-name="Group 245" transform="translate(36.616 78.775)">
        <path id="Path_172" data-name="Path 172" d="M22.609,72.566H21.5V70.347h1.109A27.768,27.768,0,0,0,50.347,42.609V41.5h2.219v1.109A29.99,29.99,0,0,1,22.609,72.566Z" transform="translate(-21.5 -41.5)" fill="#ff5130"/>
      </g>
    </g>
  </g>
</svg>
