<svg xmlns="http://www.w3.org/2000/svg" width="27.577" height="27.577" viewBox="0 0 27.577 27.577">
  <g id="Group_218" data-name="Group 218" transform="translate(-3381 -6991)">
    <g id="Union_24" data-name="Union 24" transform="translate(2074.305 18202.379) rotate(-45)" fill="none">
      <path d="M8850.615-6973.67v-6c0-.021,0-.042,0-.062a8,8,0,0,1-7-7.938,8,8,0,0,1,8-8,8,8,0,0,1,8,8,8,8,0,0,1-7,7.938c0,.021,0,.041,0,.062v6a1,1,0,0,1-1,1A1,1,0,0,1,8850.615-6973.67Z" stroke="none"/>
      <path d="M 8851.6162109375 -6981.62158203125 L 8852.3671875 -6981.71533203125 C 8855.359375 -6982.087890625 8857.615234375 -6984.6474609375 8857.615234375 -6987.66845703125 C 8857.615234375 -6990.97705078125 8854.923828125 -6993.6689453125 8851.615234375 -6993.6689453125 C 8848.306640625 -6993.6689453125 8845.615234375 -6990.97705078125 8845.615234375 -6987.66845703125 C 8845.615234375 -6984.6474609375 8847.8720703125 -6982.087890625 8850.8642578125 -6981.71533203125 L 8851.6162109375 -6981.62158203125 M 8851.615234375 -6972.6689453125 C 8851.0615234375 -6972.6689453125 8850.615234375 -6973.1162109375 8850.615234375 -6973.669921875 L 8850.615234375 -6979.66845703125 C 8850.615234375 -6979.689453125 8850.615234375 -6979.7099609375 8850.6171875 -6979.73046875 C 8846.669921875 -6980.22216796875 8843.615234375 -6983.5888671875 8843.615234375 -6987.66845703125 C 8843.615234375 -6992.0869140625 8847.197265625 -6995.6689453125 8851.615234375 -6995.6689453125 C 8856.033203125 -6995.6689453125 8859.615234375 -6992.0869140625 8859.615234375 -6987.66845703125 C 8859.615234375 -6983.5888671875 8856.560546875 -6980.22216796875 8852.6142578125 -6979.73046875 C 8852.615234375 -6979.7099609375 8852.6162109375 -6979.689453125 8852.6162109375 -6979.66845703125 L 8852.6162109375 -6973.669921875 C 8852.6162109375 -6973.1162109375 8852.1689453125 -6972.6689453125 8851.615234375 -6972.6689453125 Z" stroke="none" fill="#3b435b"/>
    </g>
  </g>
</svg>
