<svg xmlns="http://www.w3.org/2000/svg" width="19.981" height="21.95" viewBox="0 0 19.981 21.95">
  <g id="icons" transform="translate(-1.961 -1.05)">
    <g id="notification">
      <g id="Path_157" data-name="Path 157" fill="none">
        <path d="M13.7,20H10.2a1.027,1.027,0,0,0-.9,1.5A3.282,3.282,0,0,0,12,23a2.984,2.984,0,0,0,2.6-1.5A1,1,0,0,0,13.7,20Z" stroke="none"/>
        <path d="M 10.19999980926514 20 L 13.69999980926514 20 C 14.5 20 15 20.79999923706055 14.59999942779541 21.5 C 14.09999942779541 22.39999961853027 13.09999942779541 23 12 23 C 10.89999961853027 23 9.899999618530273 22.39999961853027 9.300000190734863 21.5 C 8.899999618530273 20.79999923706055 9.5 20 10.19999980926514 20 Z" stroke="none" fill="#3b435b"/>
      </g>
      <g id="Path_158" data-name="Path 158" fill="none">
        <path d="M21.8,16.7l-.4-.5A11.77,11.77,0,0,1,19,9V8.3a7.151,7.151,0,0,0-6.2-7.2A6.972,6.972,0,0,0,5,8V9a11.77,11.77,0,0,1-2.4,7.2l-.4.5a.83.83,0,0,0-.2.8A2.131,2.131,0,0,0,4,19H20a1.927,1.927,0,0,0,1.9-1.5A1.063,1.063,0,0,0,21.8,16.7Z" stroke="none"/>
        <path d="M 19.50698089599609 17 C 17.86497688293457 14.6718578338623 17 11.91722583770752 17 9 L 17 8.300000190734863 C 17 7.010790348052979 16.54656982421875 5.764920234680176 15.72322940826416 4.791880130767822 C 14.90727996826172 3.827580213546753 13.79068946838379 3.2223801612854 12.57913970947266 3.087770223617554 L 12.57135963439941 3.086900234222412 L 12.56359958648682 3.085980176925659 C 12.36174964904785 3.061950206756592 12.15783023834229 3.04977011680603 11.95747947692871 3.04977011680603 C 10.6401195526123 3.04977011680603 9.396900177001953 3.56699013710022 8.456830024719238 4.506160259246826 C 7.517379760742188 5.444710254669189 7 6.685520172119141 7 8 L 7 9 C 7 11.91722583770752 6.13502311706543 14.6718578338623 4.49301815032959 17 L 19.50698089599609 17 M 20 19 L 3.999999761581421 19 C 3.099999904632568 19 2.299999713897705 18.39999961853027 1.999999761581421 17.5 C 1.899999856948853 17.29999923706055 1.999999761581421 16.89999961853027 2.199999809265137 16.70000076293945 L 2.599999904632568 16.20000076293945 C 4.199999809265137 14.10000038146973 5 11.60000038146973 5 9 L 5 8 C 5 4.17702054977417 8.129627227783203 1.049768686294556 11.95747852325439 1.049768686294556 C 12.2348518371582 1.049768686294556 12.51622295379639 1.066217184066772 12.80000019073486 1.100000143051147 C 16.39999961853027 1.500000238418579 19 4.700000286102295 19 8.300000190734863 L 19 9 C 19 11.60000038146973 19.79999923706055 14.10000038146973 21.39999961853027 16.20000076293945 L 21.79999923706055 16.70000076293945 C 21.89999961853027 16.89999961853027 22 17.20000076293945 21.89999961853027 17.5 C 21.70000076293945 18.39999961853027 20.89999961853027 19 20 19 Z" stroke="none" fill="#3b435b"/>
      </g>
    </g>
  </g>
</svg>
