<svg xmlns="http://www.w3.org/2000/svg" xmlns:xlink="http://www.w3.org/1999/xlink" width="216.577" height="165.877" viewBox="0 0 216.577 165.877">
  <defs>
    <filter id="Line_5" x="117.481" y="0" width="55.114" height="78.693" filterUnits="userSpaceOnUse">
      <feOffset dy="3" input="SourceAlpha"/>
      <feGaussianBlur stdDeviation="3" result="blur"/>
      <feFlood flood-opacity="0.161"/>
      <feComposite operator="in" in2="blur"/>
      <feComposite in="SourceGraphic"/>
    </filter>
    <filter id="Line_6" x="126.022" y="43.439" width="79.531" height="49.349" filterUnits="userSpaceOnUse">
      <feOffset dy="3" input="SourceAlpha"/>
      <feGaussianBlur stdDeviation="3" result="blur-2"/>
      <feFlood flood-opacity="0.161"/>
      <feComposite operator="in" in2="blur-2"/>
      <feComposite in="SourceGraphic"/>
    </filter>
    <filter id="Line_7" x="131.975" y="91.834" width="84.602" height="30.842" filterUnits="userSpaceOnUse">
      <feOffset dy="3" input="SourceAlpha"/>
      <feGaussianBlur stdDeviation="3" result="blur-3"/>
      <feFlood flood-opacity="0.161"/>
      <feComposite operator="in" in2="blur-3"/>
      <feComposite in="SourceGraphic"/>
    </filter>
    <filter id="Line_8" x="94.968" y="28.418" width="58.64" height="120.89" filterUnits="userSpaceOnUse">
      <feOffset dy="3" input="SourceAlpha"/>
      <feGaussianBlur stdDeviation="3" result="blur-4"/>
      <feFlood flood-opacity="0.161"/>
      <feComposite operator="in" in2="blur-4"/>
      <feComposite in="SourceGraphic"/>
    </filter>
    <filter id="Path_25" x="0" y="34.069" width="140.802" height="121.563" filterUnits="userSpaceOnUse">
      <feOffset dy="3" input="SourceAlpha"/>
      <feGaussianBlur stdDeviation="3" result="blur-5"/>
      <feFlood flood-opacity="0.161"/>
      <feComposite operator="in" in2="blur-5"/>
      <feComposite in="SourceGraphic"/>
    </filter>
    <filter id="Path_26" x="21.969" y="130.338" width="58.147" height="35.539" filterUnits="userSpaceOnUse">
      <feOffset dy="3" input="SourceAlpha"/>
      <feGaussianBlur stdDeviation="3" result="blur-6"/>
      <feFlood flood-opacity="0.161"/>
      <feComposite operator="in" in2="blur-6"/>
      <feComposite in="SourceGraphic"/>
    </filter>
  </defs>
  <g id="Group_203" data-name="Group 203" transform="translate(-96.888 -372.718)">
    <g id="Group_12" data-name="Group 12" transform="translate(576 1277.079)">
      <g transform="matrix(1, 0, 0, 1, -479.11, -904.36)" filter="url(#Line_5)">
        <line id="Line_5-2" data-name="Line 5" x1="33.011" y2="56.59" transform="translate(128.53 8.05)" fill="none" stroke="#f84f2f" stroke-linecap="round" stroke-width="3"/>
      </g>
      <g transform="matrix(1, 0, 0, 1, -479.11, -904.36)" filter="url(#Line_6)">
        <line id="Line_6-2" data-name="Line 6" x1="57.533" y2="27.352" transform="translate(137.02 51.44)" fill="none" stroke="#f84f2f" stroke-linecap="round" stroke-width="3"/>
      </g>
      <g transform="matrix(1, 0, 0, 1, -479.11, -904.36)" filter="url(#Line_7)">
        <line id="Line_7-2" data-name="Line 7" x2="63.192" y2="9.432" transform="translate(142.68 99.54)" fill="none" stroke="#f84f2f" stroke-linecap="round" stroke-width="3"/>
      </g>
      <g transform="matrix(1, 0, 0, 1, -479.11, -904.36)" filter="url(#Line_8)">
        <line id="Line_8-2" data-name="Line 8" x2="36.784" y2="99.033" transform="translate(105.9 36.35)" fill="none" stroke="#f84f2f" stroke-linecap="round" stroke-width="3"/>
      </g>
      <g transform="matrix(1, 0, 0, 1, -479.11, -904.36)" filter="url(#Path_25)">
        <path id="Path_25-2" data-name="Path 25" d="M-1149.733-1276.892l34.293,92.719-98.053,3.048-7.875,3.3-12.7-33.531,7.113-1.271Z" transform="translate(1245.11 1319.47)" fill="none" stroke="#f84f2f" stroke-linecap="round" stroke-width="3"/>
      </g>
      <g transform="matrix(1, 0, 0, 1, -479.11, -904.36)" filter="url(#Path_26)">
        <path id="Path_26-2" data-name="Path 26" d="M-1209.651-1161.414l35.309-1.524-1.27-12.955h-35.563Z" transform="translate(1243.81 1313.73)" fill="none" stroke="#f84f2f" stroke-linecap="round" stroke-width="3"/>
      </g>
    </g>
  </g>
</svg>
