<svg xmlns="http://www.w3.org/2000/svg" xmlns:xlink="http://www.w3.org/1999/xlink" width="216.577" height="165.877" viewBox="0 0 216.577 165.877"><defs><style>.a{fill:none;stroke:#f84f2f;stroke-linecap:round;stroke-width:3px;}.b{filter:url(#k);}.c{filter:url(#i);}.d{filter:url(#g);}.e{filter:url(#e);}.f{filter:url(#c);}.g{filter:url(#a);}</style><filter id="a" x="117.481" y="0" width="55.114" height="78.693" filterUnits="userSpaceOnUse"><feOffset dy="3" input="SourceAlpha"/><feGaussianBlur stdDeviation="3" result="b"/><feFlood flood-opacity="0.161"/><feComposite operator="in" in2="b"/><feComposite in="SourceGraphic"/></filter><filter id="c" x="126.022" y="43.439" width="79.531" height="49.349" filterUnits="userSpaceOnUse"><feOffset dy="3" input="SourceAlpha"/><feGaussianBlur stdDeviation="3" result="d"/><feFlood flood-opacity="0.161"/><feComposite operator="in" in2="d"/><feComposite in="SourceGraphic"/></filter><filter id="e" x="131.975" y="91.834" width="84.602" height="30.842" filterUnits="userSpaceOnUse"><feOffset dy="3" input="SourceAlpha"/><feGaussianBlur stdDeviation="3" result="f"/><feFlood flood-opacity="0.161"/><feComposite operator="in" in2="f"/><feComposite in="SourceGraphic"/></filter><filter id="g" x="94.968" y="28.418" width="58.64" height="120.89" filterUnits="userSpaceOnUse"><feOffset dy="3" input="SourceAlpha"/><feGaussianBlur stdDeviation="3" result="h"/><feFlood flood-opacity="0.161"/><feComposite operator="in" in2="h"/><feComposite in="SourceGraphic"/></filter><filter id="i" x="0" y="34.069" width="140.802" height="121.563" filterUnits="userSpaceOnUse"><feOffset dy="3" input="SourceAlpha"/><feGaussianBlur stdDeviation="3" result="j"/><feFlood flood-opacity="0.161"/><feComposite operator="in" in2="j"/><feComposite in="SourceGraphic"/></filter><filter id="k" x="21.969" y="130.338" width="58.147" height="35.539" filterUnits="userSpaceOnUse"><feOffset dy="3" input="SourceAlpha"/><feGaussianBlur stdDeviation="3" result="l"/><feFlood flood-opacity="0.161"/><feComposite operator="in" in2="l"/><feComposite in="SourceGraphic"/></filter></defs><g transform="translate(-96.888 -372.718)"><g transform="translate(576 1277.079)"><g class="g" transform="matrix(1, 0, 0, 1, -479.11, -904.36)"><line class="a" x1="33.011" y2="56.59" transform="translate(128.53 8.05)"/></g><g class="f" transform="matrix(1, 0, 0, 1, -479.11, -904.36)"><line class="a" x1="57.533" y2="27.352" transform="translate(137.02 51.44)"/></g><g class="e" transform="matrix(1, 0, 0, 1, -479.11, -904.36)"><line class="a" x2="63.192" y2="9.432" transform="translate(142.68 99.54)"/></g><g class="d" transform="matrix(1, 0, 0, 1, -479.11, -904.36)"><line class="a" x2="36.784" y2="99.033" transform="translate(105.9 36.35)"/></g><g class="c" transform="matrix(1, 0, 0, 1, -479.11, -904.36)"><path class="a" d="M-1149.733-1276.892l34.293,92.719-98.053,3.048-7.875,3.3-12.7-33.531,7.113-1.271Z" transform="translate(1245.11 1319.47)"/></g><g class="b" transform="matrix(1, 0, 0, 1, -479.11, -904.36)"><path class="a" d="M-1209.651-1161.414l35.309-1.524-1.27-12.955h-35.563Z" transform="translate(1243.81 1313.73)"/></g></g></g></svg>