<svg xmlns="http://www.w3.org/2000/svg" xmlns:xlink="http://www.w3.org/1999/xlink" width="302" height="190" viewBox="0 0 302 190">
  <defs>
    <filter id="Union_31" x="41" y="42" width="220.457" height="112.85" filterUnits="userSpaceOnUse">
      <feOffset dy="3" input="SourceAlpha"/>
      <feGaussianBlur stdDeviation="3" result="blur"/>
      <feFlood flood-opacity="0.161"/>
      <feComposite operator="in" in2="blur"/>
      <feComposite in="SourceGraphic"/>
    </filter>
  </defs>
  <g id="card-2" transform="translate(-36 -229)">
    <rect id="Rectangle_166" data-name="Rectangle 166" width="302" height="190" transform="translate(36 229)" fill="#0f1" opacity="0"/>
    <g id="Group_206" data-name="Group 206" transform="translate(7966 2444)">
      <g transform="matrix(1, 0, 0, 1, -7930, -2215)" filter="url(#Union_31)">
        <path id="Union_31-2" data-name="Union 31" d="M0,94.85v-3H175.828v3ZM170.579,86.6V66.92H173.2V86.6Zm-91.85,0V43.3h2.624V86.6Zm96.878-24.808,2.969-2.969,23.882,23.882-2.969,2.969Zm-18.148,23.5V66.92h2.624v18.37Zm-13.121,0V66.92h2.623v18.37Zm-13.122,0V57.734h2.624V85.289Zm-13.121,0V57.734h2.624V85.289Zm-13.122,0V48.55H107.6v36.74Zm-13.121,0V34.115h2.624V85.289Zm-26.243,0V0h2.624V85.289Zm-13.121,0V57.734h2.624V85.289Zm-13.122,0V51.174h2.624V85.289Zm-13.121,0V13.121h2.624V85.289Zm-13.122,0V19.682h2.624V85.289ZM0,85.289V44.613H2.624V85.289Z" transform="translate(50 48)" fill="#ff5130"/>
      </g>
      <g id="Ellipse_1" data-name="Ellipse 1" transform="translate(-7850.71 -2165.491)" fill="none" stroke-linecap="round">
        <path d="M103.023,14.023a31.663,31.663,0,1,1,.121,44.657A31.577,31.577,0,0,1,103.023,14.023Z" stroke="none"/>
        <path d="M 125.2398986816406 7.83428955078125 C 121.54150390625 7.83428955078125 117.9399261474609 8.533233642578125 114.5352630615234 9.911712646484375 C 111.0130004882813 11.33779525756836 107.8533172607422 13.43461990356445 105.1440124511719 16.14392471313477 C 102.4247741699219 18.86320877075195 100.3229217529297 22.03516006469727 98.89682006835938 25.57170104980469 C 97.51834106445313 28.99019622802734 96.82449340820313 32.60575103759766 96.83456420898438 36.31792449951172 C 96.84461975097656 40.03169250488281 97.55865478515625 43.65327835083008 98.95683288574219 47.08211517333984 C 100.4042053222656 50.63158416748047 102.5265808105469 53.81982040405273 105.2649688720703 56.55824279785156 C 108.0135040283203 59.30670166015625 111.214111328125 61.43421936035156 114.7778930664063 62.88166809082031 C 118.2205963134766 64.27993774414063 121.8561096191406 64.98892211914063 125.5834732055664 64.98892211914063 C 129.2818908691406 64.98892211914063 132.8834228515625 64.28999328613281 136.2880249023438 62.91154861450195 C 139.8102264404297 61.48548889160156 142.9698791503906 59.38869094848633 145.67919921875 56.67937469482422 C 148.3984680175781 53.96009063720703 150.5003356933594 50.78813934326172 151.9264373779297 47.25159454345703 C 153.304931640625 43.83311462402344 153.9987945556641 40.21755981445313 153.9887237548828 36.50539779663086 C 153.9786529541016 32.79163360595703 153.2645874023438 29.1700439453125 151.8663787841797 25.74120712280273 C 150.4189758300781 22.19174957275391 148.2965545654297 19.00351333618164 145.5580444335938 16.26501846313477 C 142.8096008300781 13.51651382446289 139.6090698242188 11.38898468017578 136.0453491210938 9.941535949707031 C 132.6027526855469 8.543266296386719 128.96728515625 7.83428955078125 125.2398986816406 7.83428955078125 M 125.2398986816406 4.834281921386719 C 133.3506774902344 4.834281921386719 141.4743041992188 7.938507080078125 147.6793823242188 14.14372634887695 C 160.0445251464844 26.50875091552734 160.0987243652344 46.50246810913086 147.8005065917969 58.80068969726563 C 141.6739196777344 64.92729187011719 133.6350860595703 67.98892211914063 125.5834808349609 67.98892211914063 C 117.4726867675781 67.98892211914063 109.3488922119141 64.88466644287109 103.1436767578125 58.67958450317383 C 90.77877807617188 46.31455993652344 90.724609375 26.32084274291992 103.0226898193359 14.02262115478516 C 109.1492919921875 7.896018981933594 117.1882934570313 4.834281921386719 125.2398986816406 4.834281921386719 Z" stroke="none" fill="#f84f2f"/>
      </g>
    </g>
  </g>
</svg>
