<svg xmlns="http://www.w3.org/2000/svg" width="10" height="10" viewBox="0 0 10 10">
  <path id="Close_Button:_X" data-name="Close Button: X" d="M11.5-11.612l3.636,3.636a.8.8,0,0,1,0,1.13.8.8,0,0,1-1.13,0l-3.636-3.636L6.733-6.846a.8.8,0,0,1-1.13,0,.8.8,0,0,1,0-1.13l3.636-3.636L5.6-15.248a.8.8,0,0,1,0-1.13.8.8,0,0,1,1.13,0l3.636,3.636L14-16.378a.8.8,0,0,1,1.13,0,.8.8,0,0,1,0,1.13Z" transform="translate(-5.369 16.612)" fill="#ff5130" fill-rule="evenodd" style="mix-blend-mode: color-burn;isolation: isolate"/>
</svg>
