<svg xmlns="http://www.w3.org/2000/svg" width="19" height="22" viewBox="0 0 19 22">
  <g id="Group_395" data-name="Group 395" transform="translate(-334 -53)">
    <g id="Component_110_7" data-name="Component 110 – 7" transform="translate(334 56)">
      <g id="Path_169" data-name="Path 169" fill="#fff">
        <path d="M 16 18 L 3 18 C 1.897199988365173 18 1 17.1028003692627 1 16 L 1 3 C 1 1.897199988365173 1.897199988365173 1 3 1 L 16 1 C 17.1028003692627 1 18 1.897199988365173 18 3 L 18 16 C 18 17.1028003692627 17.1028003692627 18 16 18 Z" stroke="none"/>
        <path d="M 3 2 C 2.448600769042969 2 2 2.448600769042969 2 3 L 2 16 C 2 16.55139923095703 2.448600769042969 17 3 17 L 16 17 C 16.55139923095703 17 17 16.55139923095703 17 16 L 17 3 C 17 2.448600769042969 16.55139923095703 2 16 2 L 3 2 M 3 0 L 16 0 C 17.65685081481934 0 19 1.343149185180664 19 3 L 19 16 C 19 17.65685081481934 17.65685081481934 19 16 19 L 3 19 C 1.343149185180664 19 0 17.65685081481934 0 16 L 0 3 C 0 1.343149185180664 1.343149185180664 0 3 0 Z" stroke="none" fill="#3b435b"/>
      </g>
    </g>
    <g id="Component_112_1" data-name="Component 112 – 1" transform="translate(338 53)">
      <g id="Component_111_6" data-name="Component 111 – 6">
        <circle id="Ellipse_50" data-name="Ellipse 50" cx="6" cy="6" r="6" fill="#fff"/>
      </g>
      <rect id="Rectangle_176" data-name="Rectangle 176" width="2" height="8" transform="translate(4.464 2.414) rotate(-45)" fill="#3b435b"/>
      <rect id="Rectangle_177" data-name="Rectangle 177" width="2" height="8" transform="translate(6.121 1) rotate(45)" fill="#3b435b"/>
      <rect id="Rectangle_181" data-name="Rectangle 181" width="2" height="12" transform="translate(5 3.536)" fill="#3b435b"/>
    </g>
  </g>
</svg>
