<svg xmlns="http://www.w3.org/2000/svg" width="19" height="14.011" viewBox="0 0 19 14.011">
  <g id="Component_76_1" data-name="Component 76 – 1" transform="translate(0.5 0.54)">
    <g id="Group_271" data-name="Group 271" transform="translate(6.5 0)">
      <g id="Back" transform="translate(11.5) rotate(90)">
        <path id="Back-2" data-name="Back" d="M12.733,4.042.674,4.048,4.286.346a.206.206,0,0,0,0-.286.194.194,0,0,0-.279,0L.058,4.107a.206.206,0,0,0,0,.286L4.007,8.441a.194.194,0,0,0,.279,0,.206.206,0,0,0,0-.286L.674,4.452l12.058-.006a.2.2,0,0,0,0-.4" fill="#3b435b" stroke="#3b435b" stroke-linecap="round" stroke-linejoin="round" stroke-miterlimit="10" stroke-width="1"/>
      </g>
    </g>
    <g id="Group_272" data-name="Group 272" transform="translate(-8.5 0)">
      <g id="Back-3" data-name="Back" transform="translate(8.5 12.93) rotate(-90)">
        <path id="Back-4" data-name="Back" d="M12.733,4.042.674,4.048,4.286.346a.206.206,0,0,0,0-.286.194.194,0,0,0-.279,0L.058,4.107a.206.206,0,0,0,0,.286L4.007,8.441a.194.194,0,0,0,.279,0,.206.206,0,0,0,0-.286L.674,4.452l12.058-.006a.2.2,0,0,0,0-.4" fill="#3b435b" stroke="#3b435b" stroke-linecap="round" stroke-linejoin="round" stroke-miterlimit="10" stroke-width="1"/>
      </g>
    </g>
  </g>
</svg>
