<svg xmlns="http://www.w3.org/2000/svg" width="13.174" height="21.952" viewBox="0 0 13.174 21.952">
  <path id="Тризуб" d="M7.653,1a3.278,3.278,0,0,0-.823,2.175c.03,1.832.255,3.661.274,5.489a12.391,12.391,0,0,1-1.093,4.874c-.207.432-.431.855-.656,1.278L4.7,14.683a1.1,1.1,0,0,1,.21-2.175l.24.026L4.61,8.055a6.853,6.853,0,0,0-2.717-4.88,6.91,6.91,0,0,0-.823-.532v15.9H4.741a6.032,6.032,0,0,0,2.247,3.678,2.217,2.217,0,0,1,.669.729,2.2,2.2,0,0,1,.669-.729,6.037,6.037,0,0,0,2.247-3.678h3.671V2.644A6.881,6.881,0,0,0,10.7,8.055l-.536,4.479.24-.026a1.1,1.1,0,0,1,.21,2.175l-.659.133c-.224-.423-.449-.846-.656-1.278A12.373,12.373,0,0,1,8.21,8.664C8.23,6.83,8.454,5,8.484,3.175A3.282,3.282,0,0,0,7.661,1ZM2.164,4.935A5.724,5.724,0,0,1,3.492,7.951l.439,3.694A2.2,2.2,0,0,0,2.782,13.06H2.16V4.937Zm10.978,0v8.124H12.52a2.2,2.2,0,0,0-1.149-1.416l.439-3.694a5.749,5.749,0,0,1,1.328-3.016ZM7.653,12.362a12.526,12.526,0,0,0,1.2,2.732,2.463,2.463,0,0,0-1.2.81,2.472,2.472,0,0,0-1.2-.811A12.557,12.557,0,0,0,7.653,12.362Zm-5.489,1.8h.622a2.2,2.2,0,0,0,1.537,1.565l.527.12a6.029,6.029,0,0,0-.218,1.608H2.162V14.16Zm10.357,0h.622v3.293h-2.47a6.05,6.05,0,0,0-.218-1.608l.527-.12a2.2,2.2,0,0,0,1.537-1.565ZM5.924,16.1A1.37,1.37,0,0,1,7.1,17.452H5.731A4.909,4.909,0,0,1,5.924,16.1Zm3.456,0a4.9,4.9,0,0,1,.193,1.355H8.2A1.37,1.37,0,0,1,9.38,16.1ZM5.856,18.55H7.1v2.311A4.981,4.981,0,0,1,5.856,18.55Zm2.345,0H9.449A4.937,4.937,0,0,1,8.2,20.861Z" transform="translate(-1.07 -1)" fill="#ecf0f5"/>
</svg>
